<?xml version="1.0" encoding="utf-8"?>
<!-- Generator: Adobe Illustrator 20.0.0, SVG Export Plug-In . SVG Version: 6.00 Build 0)  -->
<svg version="1.1" id="Layer_1" xmlns="http://www.w3.org/2000/svg" xmlns:xlink="http://www.w3.org/1999/xlink" x="0px" y="0px"
	 viewBox="0 0 90 125" style="enable-background:new 0 0 90 125;" xml:space="preserve">
<style type="text/css">
	.st0{fill:#FFFFFF;}
</style>
<path class="st0" d="M77.3,80.2L77.3,80.2l-0.1-0.1c-1.5-1.8-3.2-2.9-5.2-3.4l-10.6-5.5c1-4.4,2.1-10.6,2.1-17.3
	c0-15.9-6.5-26.3-16.6-26.3c-3.8,0-6.6,0.7-8.4,2.1c-0.1,0-0.2,0-0.3,0c-2,0-3.9,0.8-5.4,2.4c-3.6,3.6-5.6,11.8-5.4,21.8
	c0,5.5,1.1,12.1,2.2,16.8l0,0l-11.3,5.9c-2,0.5-3.8,1.7-5.2,3.4c-1.4,1.6-2.1,3.7-2.1,6.3v1.8c0,1.6,0.6,3.1,1.8,4.2
	c1.2,1.2,2.7,1.8,4.2,1.8H73c1.6,0,3.1-0.6,4.2-1.8c1.2-1.2,1.8-2.7,1.8-4.2v-1.7C79.3,84.4,78.6,82.1,77.3,80.2z M55,63.6L53,64
	c0,1-1,2-2,2h-2c-1,0-2-1-2-2c0-1,1-2,2-2h2c0.7,0,1.3,0.5,1.7,1l2.1-0.4c2.8-0.6,4.8-3,4.8-6v-8.6h1v8.8
	C60.6,60.1,58.4,62.9,55,63.6z M51.3,46.9c-2.8,0.2-4.4,1.4-5.8,1.4s-2.8-1.2-5.8-1.4c-1.9-0.1-3.7,0-4.8,0.1
	c0.5-0.3,0.9-0.6,1.4-1.1c2.4-2.4,2-6,2-6s2.4,8.2,12,6c2.9-0.7,4.8,0,6,1.1C55.3,46.9,53.4,46.8,51.3,46.9z M55.2,49.7
	c0,1-0.6,2.4-1.2,3.2c-0.6,0.8-2.8,1.4-4.4,0.8c-1.6-0.4-2-3.2-2-4c0-0.8,1.8-1.4,3.4-1.6C54.6,47.9,55.2,48.7,55.2,49.7z
	 M43.7,49.9c0,0.8-0.4,3.4-2,3.8c-1.6,0.4-3.6-0.2-4.4-0.8c-0.6-0.8-1.2-2.4-1.2-3.2c0-1,0.6-1.6,4.2-1.4
	C41.9,48.5,43.7,49.1,43.7,49.9z M31.9,52.1c0.2,0.7,0.4,0.8,0.4,0c0-2.3,0.5-3.4,1.3-4.1c0.1,0.3,0.1,0.5,0.1,0.7
	c0,0.2,0.4,0.2,0.6,0.4c0.2,0.2,0.6,1.6,1.2,3c0.6,1.4,1.4,2.8,4.8,2.8c2.2,0,3.2-1.4,3.4-2c0.6-1.2,0.6-2.8,1.6-2.8s1,1.6,1.6,2.8
	c0.4,0.6,1.2,2,3.4,2c3.4,0,4.2-1.6,4.8-2.8c0.6-1.2,1-2.8,1.2-3c0.2-0.2,0.6-0.2,0.6-0.4c0-0.2,0.1-0.4,0.2-0.7
	c1.2,1.8,1.2,3.9,1.2,3.9s0.1-0.3,0.3-0.8v1.9c-0.4,2-1.2,3.5-2.1,3.6c-0.5,1.8-1.3,3.4-2.3,4.9l-1.2,0.3c-0.6-0.6-1.3-0.9-2.1-0.9
	h-2c-1.5,0-3,1.5-3,3c0,1.4,1.1,2.6,2.5,2.9c-1,0.4-2,0.7-3.1,0.7c-5,0-9.4-4.8-11.2-10.8C33.1,56.5,32.1,54.7,31.9,52.1
	C31.9,52.1,31.9,52.1,31.9,52.1z M45,72.1l-4.9,7l-8.3-7.3l3.6-5.3L45,72.1L45,72.1z M54.9,66.6l3.6,5.3l-8.1,7.3l-5-7L54.9,66.6z
	 M77,86.4v1.8c0,1-0.4,2-1.2,2.8C75,91.8,74,92.2,73,92.2H16.9c-1,0-2-0.4-2.8-1.2c-0.8-0.8-1.2-1.8-1.2-2.8v-1.8
	c0-1.8,0.4-3.6,1.6-5c1.2-1.4,2.8-2.4,4.4-2.8l11.9-6.2l9.4,8.3l5-7.1l5.1,7.1l9.1-8.2l11.8,6.1c1.8,0.4,3.2,1.4,4.4,2.8
	C76.6,82.8,77.2,84.6,77,86.4z"/>
</svg>
